<svg width="48" height="48" viewBox="0 0 48 48" fill="none" xmlns="http://www.w3.org/2000/svg">
<circle cx="24" cy="24" r="24" fill="#1DA1F2"/>
<path fill-rule="evenodd" clip-rule="evenodd" d="M33.4929 15.2392C33.1631 15.0024 32.7351 14.9353 32.3469 15.0654L24 17.8484L15.6731 15.0644C15.2859 14.9382 14.8579 15.0024 14.5271 15.2392C14.197 15.4773 14 15.8633 14 16.2693V30.6343C14 31.1823 14.3501 31.6662 14.8679 31.8384L23.7561 34.8083H23.76C23.8369 34.8342 23.918 34.8484 24 34.8484C24.082 34.8484 24.1631 34.8342 24.24 34.8083H24.2439L33.1489 31.8384C33.6689 31.6662 34.019 31.1823 34.019 30.6333V16.2693C34.019 15.8623 33.822 15.4763 33.4929 15.2392ZM15.54 16.6462L23.23 19.2163V33.0063L15.54 30.4363V16.6462ZM24.77 33.0063L32.48 30.4365V16.6474L24.77 19.2175V33.0063Z" fill="white"/>
</svg>
