<svg width="24" height="24" viewBox="0 0 24 24" fill="none" xmlns="http://www.w3.org/2000/svg">
<path d="M5.5 3C7.16 3 8.5 4.34 8.5 6C8.5 7.66 7.16 9 5.5 9C3.84 9 2.5 7.66 2.5 6C2.5 4.34 3.84 3 5.5 3ZM23.75 16.91C23.57 14.9 22.97 13.19 21.94 11.95C20.89 10.7 19.45 10 17.75 10C17.4 10 17.07 10.03 16.74 10.09C16.56 10.63 16.29 11.14 15.94 11.58C16.68 12.04 17.35 12.63 17.93 13.34C18.98 14.64 19.64 16.25 19.99 18H23.84L23.75 16.91V16.91ZM18.5 9C20.16 9 21.5 7.66 21.5 6C21.5 4.34 20.16 3 18.5 3C16.84 3 15.5 4.34 15.5 6C15.5 7.66 16.84 9 18.5 9ZM6.07 13.34C6.65 12.63 7.32 12.04 8.06 11.58C7.71 11.14 7.44 10.63 7.26 10.09C6.93 10.03 6.6 10 6.25 10C4.55 10 3.11 10.7 2.06 11.95C1.032 13.19 0.432998 14.9 0.253998 16.91L0.156998 18H4.01C4.36 16.25 5.02 14.64 6.07 13.34ZM15 8.5C15 6.84 13.66 5.5 12 5.5C10.34 5.5 9 6.84 9 8.5C9 10.16 10.34 11.5 12 11.5C13.66 11.5 15 10.16 15 8.5ZM7.63 14.6C6.56 15.92 5.94 17.75 5.75 19.91L5.66 21H18.34L18.25 19.91C18.06 17.75 17.44 15.92 16.37 14.6C15.29 13.25 13.78 12.5 12 12.5C10.22 12.5 8.72 13.25 7.63 14.6V14.6Z" fill="#1D9BF0"/>
</svg>
