<svg width="48" height="48" viewBox="0 0 48 48" fill="none" xmlns="http://www.w3.org/2000/svg">
<path d="M24 48C37.2548 48 48 37.2548 48 24C48 10.7452 37.2548 0 24 0C10.7452 0 0 10.7452 0 24C0 37.2548 10.7452 48 24 48Z" fill="#1DA1F2"/>
<path d="M35.53 27.155C35.53 27.871 34.95 28.451 34.234 28.451H30.106C30.072 28.307 30.029 28.161 29.97 28.026C29.92 27.881 29.868 27.736 29.8 27.6C29.356 26.652 28.64 25.86 27.718 25.296C27.598 25.211 27.471 25.134 27.343 25.083C27.223 25.006 27.096 24.947 26.959 24.895C27.077 24.715 27.214 24.555 27.367 24.4C28.227 23.547 29.465 23.078 30.864 23.078H30.881C33.619 23.078 35.529 24.758 35.529 27.155H35.53ZM33.398 19.77C33.398 20.452 33.236 20.98 32.92 21.348C32.4 21.936 31.598 22.013 30.882 22.013C30.157 22.013 29.355 21.936 28.844 21.348C28.409 20.853 28.264 20.086 28.409 19.02C28.604 17.52 29.525 16.624 30.873 16.624C32.213 16.624 33.133 17.519 33.338 19.02C33.37 19.284 33.396 19.54 33.396 19.77H33.398ZM23.99 24.29C23.906 24.29 23.82 24.29 23.744 24.3C23.821 24.308 23.906 24.308 23.984 24.308C24.068 24.308 24.162 24.308 24.247 24.298C24.162 24.29 24.077 24.29 23.991 24.29H23.99Z" fill="white"/>
<path d="M26.806 21.8C26.806 22.568 26.626 23.156 26.269 23.565C25.773 24.135 25.014 24.273 24.289 24.298C24.272 24.298 24.263 24.308 24.246 24.298C24.161 24.288 24.076 24.288 23.99 24.288C23.904 24.288 23.82 24.288 23.744 24.298C23.002 24.281 22.209 24.162 21.697 23.565C21.211 23.011 21.057 22.149 21.219 20.947C21.449 19.267 22.479 18.261 23.981 18.261C25.483 18.261 26.521 19.268 26.744 20.948C26.788 21.255 26.804 21.536 26.804 21.801L26.806 21.8ZM29.236 29.96C29.236 30.746 28.606 31.377 27.82 31.377H20.145C19.369 31.377 18.729 30.747 18.729 29.961C18.729 28.785 19.189 27.685 20.016 26.858C20.988 25.886 22.421 25.366 23.99 25.358C24.912 25.358 25.74 25.518 26.456 25.826C26.592 25.876 26.72 25.936 26.84 26.014C26.968 26.074 27.096 26.142 27.215 26.227C27.778 26.585 28.247 27.047 28.588 27.6C28.673 27.735 28.75 27.88 28.818 28.025C28.886 28.161 28.938 28.305 28.988 28.451C29.151 28.921 29.236 29.425 29.236 29.961V29.96ZM12.47 27.155C12.47 27.871 13.05 28.451 13.766 28.451H17.894C17.928 28.307 17.971 28.161 18.03 28.026C18.08 27.881 18.132 27.736 18.2 27.6C18.644 26.652 19.36 25.86 20.282 25.296C20.402 25.211 20.529 25.134 20.657 25.083C20.777 25.006 20.904 24.947 21.041 24.895C20.923 24.715 20.786 24.555 20.633 24.4C19.773 23.547 18.535 23.078 17.136 23.078H17.119C14.373 23.078 12.47 24.758 12.47 27.155ZM14.602 19.77C14.602 20.452 14.764 20.98 15.08 21.348C15.6 21.936 16.402 22.013 17.118 22.013C17.843 22.013 18.645 21.936 19.156 21.348C19.591 20.853 19.736 20.086 19.591 19.02C19.387 17.52 18.466 16.623 17.119 16.623C15.779 16.623 14.859 17.518 14.654 19.019C14.62 19.283 14.604 19.539 14.604 19.769L14.602 19.77Z" fill="white"/>
</svg>
