<svg width="48" height="48" viewBox="0 0 48 48" fill="none" xmlns="http://www.w3.org/2000/svg">
<path d="M24 48C37.2548 48 48 37.2548 48 24C48 10.7452 37.2548 0 24 0C10.7452 0 0 10.7452 0 24C0 37.2548 10.7452 48 24 48Z" fill="#1DA1F2"/>
<path d="M34.1782 20.5645C34.0212 20.0775 33.5682 19.7445 33.0523 19.7445H27.1248L25.118 13.8645C24.954 13.3885 24.506 13.0645 23.9981 13.0645C23.4901 13.0645 23.0422 13.3865 22.8782 13.8645L20.8734 19.7425H14.9449C14.4319 19.7425 13.975 20.0745 13.819 20.5625C13.661 21.0525 13.839 21.5825 14.259 21.8805L18.9935 25.2375L16.9757 31.1455C16.8117 31.6295 16.9757 32.1655 17.3907 32.4695C17.8056 32.7735 18.3606 32.7795 18.7806 32.4855L23.9991 28.7815L29.2186 32.4845C29.4246 32.6305 29.6646 32.7025 29.9045 32.7025C30.1545 32.7025 30.4015 32.6225 30.6095 32.4695C31.0194 32.1645 31.1864 31.6295 31.0194 31.1455L29.0046 25.2395L33.7392 21.8835C34.1532 21.5835 34.3341 21.0535 34.1792 20.5635L34.1782 20.5645Z" fill="white"/>
</svg>
