<svg fill="none" height="24" viewBox="0 0 24 24" width="24" xmlns="http://www.w3.org/2000/svg"><path d="m20 4.49998c-1.378 0-2.5 1.121-2.5 2.5 0 .08.016.155.024.233l-2.392 1.548c-.811-.79-1.915-1.281-3.134-1.281-.635 0-1.238.135-1.786.374l-2.002-2.73c.179-.344.29-.729.29-1.143 0-1.379-1.122-2.5-2.5-2.5s-2.5 1.121-2.5 2.5 1.122 2.5 2.5 2.5c.227 0 .443-.04.653-.097l1.957 2.669c-.683.789-1.112 1.80502-1.112 2.92902 0 .635.135 1.238.374 1.786l-1.686 1.236c-.481-.329-1.062-.522-1.688-.522-1.654 0-3 1.346-3 3s1.346 3 3 3 3-1.346 3-3c0-.3-.058-.584-.14-.857l1.711-1.255c.789.683 1.805 1.112 2.929 1.112.615 0 1.201-.125 1.736-.35l1.125 1.575c-.224.374-.361.807-.361 1.274 0 1.379 1.122 2.5 2.5 2.5s2.5-1.121 2.5-2.5-1.122-2.5-2.5-2.5c-.177 0-.35.02-.517.055l-1.13-1.583c.706-.795 1.148-1.829 1.148-2.972 0-.541-.111-1.054-.287-1.535l2.287-1.48002c.419.318.936.514 1.502.514 1.378 0 2.5-1.121 2.5-2.5s-1.122-2.5-2.5-2.5z" fill="#1d9bf0"/></svg>