<svg fill="none" height="24" viewBox="0 0 24 24" width="24" xmlns="http://www.w3.org/2000/svg"><path d="m5.5 3c1.66 0 3 1.34 3 3s-1.34 3-3 3-3-1.34-3-3 1.34-3 3-3zm18.25 13.91c-.18-2.01-.78-3.72-1.81-4.96-1.05-1.25-2.49-1.95-4.19-1.95-.35 0-.68.03-1.01.09-.18.54-.45 1.05-.8 1.49.74.46 1.41 1.05 1.99 1.76 1.05 1.3 1.71 2.91 2.06 4.66h3.85zm-5.25-7.91c1.66 0 3-1.34 3-3s-1.34-3-3-3-3 1.34-3 3 1.34 3 3 3zm-12.43 4.34c.58-.71 1.25-1.3 1.99-1.76-.35-.44-.62-.95-.8-1.49-.33-.06-.66-.09-1.01-.09-1.7 0-3.14.7-4.19 1.95-1.028 1.24-1.627002 2.95-1.806002 4.96l-.097 1.09h3.853002c.35-1.75 1.01-3.36 2.06-4.66zm8.93-4.84c0-1.66-1.34-3-3-3s-3 1.34-3 3 1.34 3 3 3 3-1.34 3-3zm-7.37 6.1c-1.07 1.32-1.69 3.15-1.88 5.31l-.09 1.09h12.68l-.09-1.09c-.19-2.16-.81-3.99-1.88-5.31-1.08-1.35-2.59-2.1-4.37-2.1s-3.28.75-4.37 2.1z" fill="#1d9bf0"/></svg>