<svg fill="none" height="48" viewBox="0 0 48 48" width="48" xmlns="http://www.w3.org/2000/svg"><circle cx="24" cy="24" fill="#1da1f2" r="24"/><path clip-rule="evenodd" d="m31.3294 20.839c-.1965 0-.3862-.085-.5233-.236l-2.5491-2.824c-.2712-.302-.2588-.776.0306-1.06.2904-.286.7437-.27 1.0159.03l1.8419 2.04 3.0254-6.373c.1764-.37.6038-.52.9632-.34.3565.185.5012.635.3258 1.006l-3.4864 7.337c-.1035.22-.3048.374-.5386.41-.0345.006-.07.01-.1054.01zm-10.3261 2.516c1.2986 0 2.7524-.15 3.68-1.256.7792-.93 1.0322-2.367.7725-4.392-.3642-2.826-2.0279-4.513-4.4515-4.513-2.4246 0-4.0892 1.687-4.4524 4.513-.2616 2.025-.0096 3.462.7714 4.393.9277 1.108 2.3815 1.257 3.68 1.257zm0-8.66c-2.275 0-2.875 2.012-3.0283 3.212-.1993 1.549-.0546 2.627.4313 3.205.435.52 1.2132.743 2.597.743 1.3839 0 2.1611-.223 2.5971-.743.4849-.578.6296-1.655.4313-3.205-.1553-1.199-.7542-3.212-3.0284-3.212zm7.935 16.079c-.8433-3.525-4.1045-5.988-7.935-5.988-3.8314 0-7.0945 2.463-7.935 5.988-.1648.693-.0287 1.4.3786 1.94.391.522.9966.822 1.6608.822h11.7923c.6612 0 1.2678-.3 1.6579-.82.4073-.54.5443-1.247.3795-1.942zm-2.0383 1.263c.2242 0 .4063-.085.527-.245.1313-.175.1725-.415.115-.655-.6813-2.856-3.3704-4.85-6.5396-4.85s-5.8593 1.995-6.5397 4.85c-.0575.242-.0163.48.115.654.1208.161.3038.246.529.246z" fill="#fff" fill-rule="evenodd"/></svg>