<svg fill="none" height="48" viewBox="0 0 48 48" width="48" xmlns="http://www.w3.org/2000/svg"><circle cx="24" cy="24" fill="#1da1f2" r="24"/><path clip-rule="evenodd" d="m21.802 15 4.148.01c4.3701 0 7.7939 3.42 7.8 7.787v.017c-.0029 2.342-1.1411 4.702-3.043 6.312-1.615 1.366-7.8239 5.338-8.0881 5.506-.125.08-.2639.118-.4019.118-.248 0-.4899-.122-.632-.347-.076-.117-.1199-.295-.1199-.403v-3.828c-4.2791-.164-7.4651-3.272-7.4651-7.37 0-4.375 3.426-7.802 7.8-7.802zm1.1631 17.625c1.9099-1.238 5.6379-3.683 6.772-4.643 1.573-1.332 2.5119-3.266 2.5149-5.176-.002-3.53-2.7701-6.296-6.302-6.296h-.002l-4.147-.01c-3.532 0-6.3 2.768-6.3 6.302 0 3.41 2.6579 5.886 6.3181 5.886h.396c.4148 0 .75.336.75.75z" fill="#fff" fill-rule="evenodd"/></svg>