<svg fill="none" height="24" viewBox="0 0 24 24" width="24" xmlns="http://www.w3.org/2000/svg"><path d="m23.9979 5.13125c-.8457.36089-1.7542.60474-2.7094.71496.9744-.56183 1.7219-1.45334 2.0744-2.51457-.9116.52086-1.9214.89931-2.9961 1.1022-.8609-.88176-2.0864-1.43384-3.4437-1.43384-2.605 0-4.7179 2.03468-4.7179 4.54536 0 .35504.0426.70033.1216 1.03392-3.92282-.1902-7.39793-1.99957-9.72547-4.74824-.40515.67302-.6381 1.45334-.6381 2.28438 0 1.57625.83358 2.96814 2.09864 3.7826-.77383-.02439-1.50106-.22825-2.13713-.56866v.05852c0 2.20152 1.62563 4.03812 3.78504 4.45562-.39704.1034-.81332.158-1.24277.158-.30386 0-.60063-.0273-.88828-.08.60063 1.8045 2.34274 3.1194 4.40796 3.1545-1.61551 1.2192-3.65034 1.9459-5.86039 1.9459-.38084 0-.75661-.0215-1.1263-.0634 2.08851 1.2904 4.56798 2.0415 7.2318 2.0415 8.6802 0 13.4254-6.9234 13.4254-12.92793 0-.19508-.005-.39211-.0142-.58719.9217-.64181 1.7219-1.44066 2.3529-2.35071z" fill="#1da1f1"/></svg>