<svg fill="none" height="24" viewBox="0 0 24 24" width="24" xmlns="http://www.w3.org/2000/svg"><path d="m12 1.75c-2.02725 0-4.00899.60115-5.69459 1.72744-1.6856 1.12628-2.99937 2.72711-3.77517 4.60005-.7758 1.87295-.97878 3.93391-.58328 5.92221.39549 1.9883 1.37171 3.8147 2.8052 5.2481 1.43349 1.4335 3.25986 2.4098 5.24814 2.8052 1.9883.3955 4.0493.1926 5.9222-.5832 1.873-.7758 3.4738-2.0896 4.6001-3.7752s1.7274-3.6673 1.7274-5.6946c-.0003-2.71839-1.0803-5.32536-3.0024-7.24755-1.9222-1.92219-4.5292-3.00218-7.2476-3.00245zm-.25 10.48-1.25 5.27-2-1.5v-3.5l-1-3.5-2.47-1.41c.72131-1.14022 1.71095-2.0864 2.88241-2.7558 1.17145-.6694 2.48909-1.04165 3.83759-1.0842l-.75 2.25-2 .5-.5 2.5 5 1.5zm5.25 1.77v-3l-1.5-3 2.88-1.23c.9999 1.22011 1.6292 2.70116 1.8135 4.2678.1843 1.5667-.0841 3.1534-.7735 4.5722z" fill="#1d9bf0"/></svg>