<svg fill="none" height="48" viewBox="0 0 48 48" width="48" xmlns="http://www.w3.org/2000/svg"><path d="m24 48c13.2548 0 24-10.7452 24-24s-10.7452-24-24-24-24 10.7452-24 24 10.7452 24 24 24z" fill="#1da1f2"/><path d="m34.132 19.6522c0-.6-.234-1.166-.66-1.59l-3.535-3.536c-.85-.85-2.333-.85-3.182 0l-11.338 11.338c-.323.323-.538.732-.63 1.25l-.534 5.816c-.02.223.06.442.217.6.14.142.332.22.53.22.023 0 .046 0 .068-.003l5.884-.544c.45-.082.86-.297 1.184-.62l11.337-11.34c.425-.424.66-.99.66-1.59zm-17.954 8.69 3.476 3.476-3.825.35.348-3.826zm16.235-8.16-1.15 1.15-4.595-4.596 1.15-1.15c.14-.14.33-.22.53-.22s.388.08.53.22l3.535 3.536c.142.142.22.33.22.53s-.08.39-.22.53z" fill="#fff"/></svg>